<?xml version="1.0" encoding="UTF-8" standalone="no"?>
<svg width="32px" height="26px" viewBox="0 0 32 26" version="1.1" xmlns="http://www.w3.org/2000/svg" xmlns:xlink="http://www.w3.org/1999/xlink" xmlns:sketch="http://www.bohemiancoding.com/sketch/ns">
    <title>envelope-white</title>
    <description>Created with Sketch (http://www.bohemiancoding.com/sketch)</description>
    <defs></defs>
    <g id="Page-1" stroke="none" stroke-width="1" fill="none" fill-rule="evenodd" sketch:type="MSPage">
        <path d="M32.002,8.109 L32.002,22.288 C32.002,23.074 31.7223333,23.7466667 31.163,24.306 C30.6036667,24.8653333 29.931,25.145 29.145,25.145 L2.859,25.145 C2.073,25.145 1.40033333,24.8653333 0.841,24.306 C0.281666667,23.7466667 0.002,23.074 0.002,22.288 L0.002,8.109 C0.526,8.69233333 1.12733333,9.21033333 1.806,9.663 C6.11533333,12.5916667 9.07366667,14.6453333 10.681,15.824 C11.3596667,16.324 11.9103333,16.714 12.333,16.994 C12.7556667,17.274 13.3183333,17.5596667 14.021,17.851 C14.7236667,18.1423333 15.3783333,18.2883333 15.985,18.289 L16.021,18.289 C16.6283333,18.289 17.283,18.143 17.985,17.851 C18.687,17.559 19.2496667,17.2733333 19.673,16.994 C20.0963333,16.7146667 20.647,16.3246667 21.325,15.824 C23.349,14.36 26.3133333,12.3063333 30.218,9.663 C30.8966667,9.199 31.492,8.681 32.004,8.109 L32.002,8.109 Z M32.002,2.859 C32.002,3.79966667 31.7103333,4.69833333 31.127,5.555 C30.5436667,6.41166667 29.8173333,7.14366667 28.948,7.751 C24.472,10.8583333 21.6863333,12.793 20.591,13.555 C20.4716667,13.6383333 20.2186667,13.82 19.832,14.1 C19.4453333,14.38 19.124,14.6063333 18.868,14.779 C18.612,14.9516667 18.3023333,15.145 17.939,15.359 C17.5756667,15.573 17.2333333,15.7336667 16.912,15.841 C16.5906667,15.9483333 16.293,16.002 16.019,16.002 L15.983,16.002 C15.709,16.002 15.4113333,15.9483333 15.09,15.841 C14.7686667,15.7336667 14.4263333,15.573 14.063,15.359 C13.6996667,15.145 13.39,14.9516667 13.134,14.779 C12.878,14.6063333 12.5566667,14.38 12.17,14.1 C11.7833333,13.82 11.5303333,13.6383333 11.411,13.555 C10.3276667,12.793 8.768,11.7066667 6.732,10.296 C4.696,8.88533333 3.47566667,8.037 3.071,7.751 C2.333,7.251 1.63666667,6.56333333 0.982,5.688 C0.327333333,4.81266667 0,4 0,3.25 C0,2.32133333 0.247,1.54766667 0.741,0.929 C1.235,0.310333333 1.94033333,0.000666666667 2.857,-3.55271368e-15 L29.143,-3.55271368e-15 C29.917,-3.55271368e-15 30.5866667,0.279666667 31.152,0.839 C31.7173333,1.39833333 32,2.071 32,2.857 L32.002,2.859 Z" id="Shape" fill="#FFFFFF" sketch:type="MSShapeGroup"></path>
    </g>
</svg>